<svg width="251" height="86" viewBox="0 0 251 86" fill="none" xmlns="http://www.w3.org/2000/svg">
<g filter="url(#filter0_d_423_27)">
<rect x="4" width="243" height="78" rx="39" fill="url(#paint0_linear_423_27)"/>
<rect x="4.5" y="0.5" width="242" height="77" rx="38.5" stroke="url(#paint1_linear_423_27)"/>
</g>
<g filter="url(#filter1_d_423_27)">
<path d="M73.1 46.2C71.8467 46.2 70.7733 45.9933 69.88 45.58C69 45.1533 68.3133 44.54 67.82 43.74C67.34 42.9267 67.08 41.9467 67.04 40.8C67.0267 40.2267 67.02 39.6133 67.02 38.96C67.02 38.3067 67.0267 37.6867 67.04 37.1C67.08 35.98 67.34 35.0267 67.82 34.24C68.3133 33.4533 69.0067 32.8533 69.9 32.44C70.8067 32.0133 71.8733 31.8 73.1 31.8C74.0867 31.8 74.9533 31.9267 75.7 32.18C76.4467 32.4333 77.0733 32.7667 77.58 33.18C78.1 33.58 78.4867 34.02 78.74 34.5C79.0067 34.98 79.1467 35.4467 79.16 35.9C79.16 36.02 79.12 36.12 79.04 36.2C78.96 36.28 78.8533 36.32 78.72 36.32H76.24C76.1067 36.32 76 36.2933 75.92 36.24C75.8533 36.1867 75.7933 36.1067 75.74 36C75.6467 35.7733 75.4933 35.5333 75.28 35.28C75.08 35.0267 74.8067 34.82 74.46 34.66C74.1133 34.4867 73.66 34.4 73.1 34.4C72.26 34.4 71.5933 34.62 71.1 35.06C70.62 35.5 70.36 36.2133 70.32 37.2C70.28 38.3467 70.28 39.5133 70.32 40.7C70.36 41.7267 70.6333 42.4667 71.14 42.92C71.6467 43.3733 72.3133 43.6 73.14 43.6C73.6867 43.6 74.1733 43.5067 74.6 43.32C75.04 43.12 75.3867 42.82 75.64 42.42C75.8933 42.0067 76.02 41.48 76.02 40.84V40.34H73.84C73.7067 40.34 73.5933 40.2933 73.5 40.2C73.4067 40.0933 73.36 39.9733 73.36 39.84V38.56C73.36 38.4133 73.4067 38.2933 73.5 38.2C73.5933 38.1067 73.7067 38.06 73.84 38.06H78.76C78.9067 38.06 79.0267 38.1067 79.12 38.2C79.2133 38.2933 79.26 38.4133 79.26 38.56V40.74C79.26 41.8867 79.0067 42.8667 78.5 43.68C77.9933 44.4933 77.2733 45.12 76.34 45.56C75.42 45.9867 74.34 46.2 73.1 46.2ZM86.4992 46.2C84.9659 46.2 83.7459 45.7733 82.8392 44.92C81.9459 44.0667 81.4726 42.8267 81.4192 41.2C81.4192 41.0933 81.4192 40.9533 81.4192 40.78C81.4192 40.5933 81.4192 40.4533 81.4192 40.36C81.4726 39.32 81.7059 38.4333 82.1192 37.7C82.5326 36.9533 83.1126 36.3867 83.8592 36C84.6059 35.6 85.4792 35.4 86.4792 35.4C87.6126 35.4 88.5526 35.6333 89.2992 36.1C90.0459 36.5533 90.6059 37.18 90.9792 37.98C91.3659 38.7667 91.5592 39.6733 91.5592 40.7V41.16C91.5592 41.2933 91.5126 41.4133 91.4192 41.52C91.3259 41.6133 91.2059 41.66 91.0592 41.66H84.5392C84.5392 41.66 84.5392 41.68 84.5392 41.72C84.5392 41.7467 84.5392 41.7733 84.5392 41.8C84.5526 42.2267 84.6326 42.62 84.7792 42.98C84.9259 43.3267 85.1392 43.6067 85.4192 43.82C85.7126 44.0333 86.0659 44.14 86.4792 44.14C86.7992 44.14 87.0659 44.0933 87.2792 44C87.4926 43.8933 87.6659 43.78 87.7992 43.66C87.9459 43.5267 88.0526 43.4133 88.1192 43.32C88.2392 43.1733 88.3326 43.0867 88.3992 43.06C88.4792 43.02 88.5926 43 88.7392 43H90.8592C90.9792 43 91.0792 43.04 91.1592 43.12C91.2526 43.2 91.2926 43.3 91.2792 43.42C91.2659 43.6467 91.1526 43.92 90.9392 44.24C90.7392 44.5467 90.4392 44.8533 90.0392 45.16C89.6392 45.4533 89.1392 45.7 88.5392 45.9C87.9526 46.1 87.2726 46.2 86.4992 46.2ZM84.5392 39.82H88.4392V39.76C88.4392 39.2933 88.3592 38.8867 88.1992 38.54C88.0526 38.18 87.8326 37.9 87.5392 37.7C87.2459 37.5 86.8926 37.4 86.4792 37.4C86.0659 37.4 85.7126 37.5 85.4192 37.7C85.1392 37.9 84.9192 38.18 84.7592 38.54C84.6126 38.8867 84.5392 39.2933 84.5392 39.76V39.82ZM98.9389 46C98.1122 46 97.4056 45.8667 96.8189 45.6C96.2456 45.32 95.8056 44.8933 95.4989 44.32C95.1922 43.7467 95.0389 43.0267 95.0389 42.16V37.96H93.4789C93.3322 37.96 93.2122 37.9133 93.1189 37.82C93.0256 37.7267 92.9789 37.6133 92.9789 37.48V36.1C92.9789 35.9533 93.0256 35.8333 93.1189 35.74C93.2122 35.6467 93.3322 35.6 93.4789 35.6H95.0389V32.3C95.0389 32.1533 95.0856 32.0333 95.1789 31.94C95.2856 31.8467 95.4056 31.8 95.5389 31.8H97.5189C97.6522 31.8 97.7656 31.8467 97.8589 31.94C97.9522 32.0333 97.9989 32.1533 97.9989 32.3V35.6H100.499C100.646 35.6 100.766 35.6467 100.859 35.74C100.952 35.8333 100.999 35.9533 100.999 36.1V37.48C100.999 37.6133 100.952 37.7267 100.859 37.82C100.766 37.9133 100.646 37.96 100.499 37.96H97.9989V41.92C97.9989 42.4267 98.0922 42.8267 98.2789 43.12C98.4656 43.4 98.7789 43.54 99.2189 43.54H100.679C100.826 43.54 100.946 43.5867 101.039 43.68C101.132 43.7733 101.179 43.8867 101.179 44.02V45.5C101.179 45.6467 101.132 45.7667 101.039 45.86C100.946 45.9533 100.826 46 100.679 46H98.9389ZM113.378 46.2C112.098 46.2 111.024 46.0133 110.158 45.64C109.304 45.2667 108.658 44.78 108.218 44.18C107.778 43.58 107.544 42.94 107.518 42.26C107.518 42.14 107.558 42.04 107.638 41.96C107.718 41.88 107.818 41.84 107.938 41.84H110.098C110.271 41.84 110.404 41.8733 110.498 41.94C110.591 42.0067 110.678 42.0933 110.758 42.2C110.851 42.44 110.998 42.6667 111.198 42.88C111.411 43.0933 111.691 43.2667 112.038 43.4C112.398 43.5333 112.844 43.6 113.378 43.6C114.244 43.6 114.891 43.46 115.318 43.18C115.758 42.9 115.978 42.52 115.978 42.04C115.978 41.7067 115.858 41.4333 115.618 41.22C115.391 41.0067 115.024 40.8133 114.518 40.64C114.024 40.4667 113.364 40.2867 112.538 40.1C111.538 39.8733 110.684 39.5933 109.978 39.26C109.284 38.9133 108.758 38.4733 108.398 37.94C108.051 37.3933 107.878 36.72 107.878 35.92C107.878 35.12 108.098 34.4133 108.538 33.8C108.978 33.1733 109.598 32.6867 110.398 32.34C111.198 31.98 112.151 31.8 113.258 31.8C114.151 31.8 114.938 31.92 115.618 32.16C116.311 32.4 116.884 32.7133 117.338 33.1C117.804 33.4867 118.158 33.9 118.398 34.34C118.638 34.78 118.764 35.2067 118.778 35.62C118.778 35.74 118.738 35.8467 118.658 35.94C118.591 36.02 118.491 36.06 118.358 36.06H116.118C115.984 36.06 115.864 36.0333 115.758 35.98C115.651 35.9267 115.558 35.8333 115.478 35.7C115.411 35.34 115.178 35.0333 114.778 34.78C114.391 34.5267 113.884 34.4 113.258 34.4C112.604 34.4 112.084 34.52 111.698 34.76C111.324 34.9867 111.138 35.3467 111.138 35.84C111.138 36.16 111.238 36.4333 111.438 36.66C111.638 36.8733 111.964 37.0667 112.418 37.24C112.871 37.4 113.484 37.5733 114.258 37.76C115.418 38 116.364 38.2933 117.098 38.64C117.831 38.9733 118.371 39.4067 118.718 39.94C119.064 40.46 119.238 41.12 119.238 41.92C119.238 42.8133 118.991 43.58 118.498 44.22C118.004 44.86 117.318 45.3533 116.438 45.7C115.558 46.0333 114.538 46.2 113.378 46.2ZM126.565 46C125.738 46 125.031 45.8667 124.445 45.6C123.871 45.32 123.431 44.8933 123.125 44.32C122.818 43.7467 122.665 43.0267 122.665 42.16V37.96H121.105C120.958 37.96 120.838 37.9133 120.745 37.82C120.651 37.7267 120.605 37.6133 120.605 37.48V36.1C120.605 35.9533 120.651 35.8333 120.745 35.74C120.838 35.6467 120.958 35.6 121.105 35.6H122.665V32.3C122.665 32.1533 122.711 32.0333 122.805 31.94C122.911 31.8467 123.031 31.8 123.165 31.8H125.145C125.278 31.8 125.391 31.8467 125.485 31.94C125.578 32.0333 125.625 32.1533 125.625 32.3V35.6H128.125C128.271 35.6 128.391 35.6467 128.485 35.74C128.578 35.8333 128.625 35.9533 128.625 36.1V37.48C128.625 37.6133 128.578 37.7267 128.485 37.82C128.391 37.9133 128.271 37.96 128.125 37.96H125.625V41.92C125.625 42.4267 125.718 42.8267 125.905 43.12C126.091 43.4 126.405 43.54 126.845 43.54H128.305C128.451 43.54 128.571 43.5867 128.665 43.68C128.758 43.7733 128.805 43.8867 128.805 44.02V45.5C128.805 45.6467 128.758 45.7667 128.665 45.86C128.571 45.9533 128.451 46 128.305 46H126.565ZM133.99 46.2C133.283 46.2 132.65 46.0667 132.09 45.8C131.53 45.52 131.083 45.1467 130.75 44.68C130.416 44.2133 130.25 43.6933 130.25 43.12C130.25 42.1733 130.63 41.4267 131.39 40.88C132.163 40.3333 133.176 39.96 134.43 39.76L137.05 39.38V39.02C137.05 38.5 136.93 38.1 136.69 37.82C136.45 37.54 136.03 37.4 135.43 37.4C134.99 37.4 134.636 37.4867 134.37 37.66C134.116 37.8333 133.916 38.06 133.77 38.34C133.663 38.5133 133.503 38.6 133.29 38.6H131.39C131.243 38.6 131.13 38.56 131.05 38.48C130.97 38.3867 130.936 38.28 130.95 38.16C130.95 37.9333 131.036 37.6667 131.21 37.36C131.383 37.0533 131.65 36.7533 132.01 36.46C132.37 36.1533 132.83 35.9 133.39 35.7C133.963 35.5 134.65 35.4 135.45 35.4C136.29 35.4 137.01 35.5 137.61 35.7C138.21 35.9 138.69 36.18 139.05 36.54C139.423 36.9 139.69 37.32 139.85 37.8C140.023 38.2667 140.11 38.7733 140.11 39.32V45.5C140.11 45.6467 140.063 45.7667 139.97 45.86C139.876 45.9533 139.763 46 139.63 46H137.65C137.516 46 137.403 45.9533 137.31 45.86C137.216 45.7667 137.17 45.6467 137.17 45.5V44.76C136.996 45.0133 136.763 45.2533 136.47 45.48C136.176 45.6933 135.823 45.8667 135.41 46C135.01 46.1333 134.536 46.2 133.99 46.2ZM134.79 44.12C135.23 44.12 135.623 44.0267 135.97 43.84C136.316 43.6533 136.59 43.3667 136.79 42.98C136.99 42.5933 137.09 42.1067 137.09 41.52V41.18L135.23 41.48C134.523 41.6 134.003 41.78 133.67 42.02C133.336 42.26 133.17 42.5533 133.17 42.9C133.17 43.1533 133.243 43.3733 133.39 43.56C133.55 43.7333 133.75 43.8733 133.99 43.98C134.243 44.0733 134.51 44.12 134.79 44.12ZM143.411 46C143.278 46 143.158 45.9533 143.051 45.86C142.958 45.7667 142.911 45.6467 142.911 45.5V36.1C142.911 35.9667 142.958 35.8533 143.051 35.76C143.158 35.6533 143.278 35.6 143.411 35.6H145.371C145.518 35.6 145.638 35.6533 145.731 35.76C145.824 35.8533 145.871 35.9667 145.871 36.1V36.9C146.204 36.4867 146.618 36.1667 147.111 35.94C147.604 35.7133 148.164 35.6 148.791 35.6H149.651C149.798 35.6 149.918 35.6467 150.011 35.74C150.104 35.8333 150.151 35.9533 150.151 36.1V37.84C150.151 37.9733 150.104 38.0867 150.011 38.18C149.918 38.2733 149.798 38.32 149.651 38.32H147.911C147.311 38.32 146.844 38.4867 146.511 38.82C146.191 39.1533 146.031 39.6133 146.031 40.2V45.5C146.031 45.6467 145.978 45.7667 145.871 45.86C145.778 45.9533 145.664 46 145.531 46H143.411ZM157.042 46C156.215 46 155.509 45.8667 154.922 45.6C154.349 45.32 153.909 44.8933 153.602 44.32C153.295 43.7467 153.142 43.0267 153.142 42.16V37.96H151.582C151.435 37.96 151.315 37.9133 151.222 37.82C151.129 37.7267 151.082 37.6133 151.082 37.48V36.1C151.082 35.9533 151.129 35.8333 151.222 35.74C151.315 35.6467 151.435 35.6 151.582 35.6H153.142V32.3C153.142 32.1533 153.189 32.0333 153.282 31.94C153.389 31.8467 153.509 31.8 153.642 31.8H155.622C155.755 31.8 155.869 31.8467 155.962 31.94C156.055 32.0333 156.102 32.1533 156.102 32.3V35.6H158.602C158.749 35.6 158.869 35.6467 158.962 35.74C159.055 35.8333 159.102 35.9533 159.102 36.1V37.48C159.102 37.6133 159.055 37.7267 158.962 37.82C158.869 37.9133 158.749 37.96 158.602 37.96H156.102V41.92C156.102 42.4267 156.195 42.8267 156.382 43.12C156.569 43.4 156.882 43.54 157.322 43.54H158.782C158.929 43.54 159.049 43.5867 159.142 43.68C159.235 43.7733 159.282 43.8867 159.282 44.02V45.5C159.282 45.6467 159.235 45.7667 159.142 45.86C159.049 45.9533 158.929 46 158.782 46H157.042ZM166.047 46.2C164.514 46.2 163.294 45.7733 162.387 44.92C161.494 44.0667 161.02 42.8267 160.967 41.2C160.967 41.0933 160.967 40.9533 160.967 40.78C160.967 40.5933 160.967 40.4533 160.967 40.36C161.02 39.32 161.254 38.4333 161.667 37.7C162.08 36.9533 162.66 36.3867 163.407 36C164.154 35.6 165.027 35.4 166.027 35.4C167.16 35.4 168.1 35.6333 168.847 36.1C169.594 36.5533 170.154 37.18 170.527 37.98C170.914 38.7667 171.107 39.6733 171.107 40.7V41.16C171.107 41.2933 171.06 41.4133 170.967 41.52C170.874 41.6133 170.754 41.66 170.607 41.66H164.087C164.087 41.66 164.087 41.68 164.087 41.72C164.087 41.7467 164.087 41.7733 164.087 41.8C164.1 42.2267 164.18 42.62 164.327 42.98C164.474 43.3267 164.687 43.6067 164.967 43.82C165.26 44.0333 165.614 44.14 166.027 44.14C166.347 44.14 166.614 44.0933 166.827 44C167.04 43.8933 167.214 43.78 167.347 43.66C167.494 43.5267 167.6 43.4133 167.667 43.32C167.787 43.1733 167.88 43.0867 167.947 43.06C168.027 43.02 168.14 43 168.287 43H170.407C170.527 43 170.627 43.04 170.707 43.12C170.8 43.2 170.84 43.3 170.827 43.42C170.814 43.6467 170.7 43.92 170.487 44.24C170.287 44.5467 169.987 44.8533 169.587 45.16C169.187 45.4533 168.687 45.7 168.087 45.9C167.5 46.1 166.82 46.2 166.047 46.2ZM164.087 39.82H167.987V39.76C167.987 39.2933 167.907 38.8867 167.747 38.54C167.6 38.18 167.38 37.9 167.087 37.7C166.794 37.5 166.44 37.4 166.027 37.4C165.614 37.4 165.26 37.5 164.967 37.7C164.687 37.9 164.467 38.18 164.307 38.54C164.16 38.8867 164.087 39.2933 164.087 39.76V39.82ZM177.386 46.2C176.719 46.2 176.126 46.0933 175.606 45.88C175.086 45.6533 174.646 45.3333 174.286 44.92C173.926 44.4933 173.652 43.9933 173.466 43.42C173.279 42.8333 173.166 42.1867 173.126 41.48C173.112 41.2267 173.106 41 173.106 40.8C173.106 40.5867 173.112 40.36 173.126 40.12C173.152 39.4267 173.259 38.7933 173.446 38.22C173.646 37.6467 173.919 37.1533 174.266 36.74C174.626 36.3133 175.066 35.9867 175.586 35.76C176.119 35.52 176.719 35.4 177.386 35.4C178.079 35.4 178.672 35.52 179.166 35.76C179.659 35.9867 180.066 36.28 180.386 36.64V32.3C180.386 32.1533 180.432 32.0333 180.526 31.94C180.619 31.8467 180.739 31.8 180.886 31.8H182.946C183.092 31.8 183.212 31.8467 183.306 31.94C183.399 32.0333 183.446 32.1533 183.446 32.3V45.5C183.446 45.6467 183.399 45.7667 183.306 45.86C183.212 45.9533 183.092 46 182.946 46H181.026C180.892 46 180.779 45.9533 180.686 45.86C180.592 45.7667 180.546 45.6467 180.546 45.5V44.82C180.212 45.22 179.792 45.5533 179.286 45.82C178.779 46.0733 178.146 46.2 177.386 46.2ZM178.306 43.8C178.799 43.8 179.192 43.6867 179.486 43.46C179.792 43.2333 180.012 42.9467 180.146 42.6C180.292 42.2533 180.372 41.88 180.386 41.48C180.412 41.2267 180.426 40.9733 180.426 40.72C180.426 40.4667 180.412 40.22 180.386 39.98C180.372 39.6067 180.286 39.26 180.126 38.94C179.979 38.6067 179.759 38.3333 179.466 38.12C179.172 37.9067 178.786 37.8 178.306 37.8C177.799 37.8 177.399 37.9133 177.106 38.14C176.812 38.3533 176.599 38.64 176.466 39C176.346 39.36 176.272 39.7533 176.246 40.18C176.219 40.5933 176.219 41.0067 176.246 41.42C176.272 41.8467 176.346 42.24 176.466 42.6C176.599 42.96 176.812 43.2533 177.106 43.48C177.399 43.6933 177.799 43.8 178.306 43.8Z" fill="white"/>
</g>
<defs>
<filter id="filter0_d_423_27" x="0" y="0" width="251" height="86" filterUnits="userSpaceOnUse" color-interpolation-filters="sRGB">
<feFlood flood-opacity="0" result="BackgroundImageFix"/>
<feColorMatrix in="SourceAlpha" type="matrix" values="0 0 0 0 0 0 0 0 0 0 0 0 0 0 0 0 0 0 127 0" result="hardAlpha"/>
<feOffset dy="4"/>
<feGaussianBlur stdDeviation="2"/>
<feComposite in2="hardAlpha" operator="out"/>
<feColorMatrix type="matrix" values="0 0 0 0 0 0 0 0 0 0 0 0 0 0 0 0 0 0 0.25 0"/>
<feBlend mode="normal" in2="BackgroundImageFix" result="effect1_dropShadow_423_27"/>
<feBlend mode="normal" in="SourceGraphic" in2="effect1_dropShadow_423_27" result="shape"/>
</filter>
<filter id="filter1_d_423_27" x="47.02" y="15.8" width="156.426" height="54.4" filterUnits="userSpaceOnUse" color-interpolation-filters="sRGB">
<feFlood flood-opacity="0" result="BackgroundImageFix"/>
<feColorMatrix in="SourceAlpha" type="matrix" values="0 0 0 0 0 0 0 0 0 0 0 0 0 0 0 0 0 0 127 0" result="hardAlpha"/>
<feOffset dy="4"/>
<feGaussianBlur stdDeviation="10"/>
<feColorMatrix type="matrix" values="0 0 0 0 0 0 0 0 0 0 0 0 0 0 0 0 0 0 0.25 0"/>
<feBlend mode="normal" in2="BackgroundImageFix" result="effect1_dropShadow_423_27"/>
<feBlend mode="normal" in="SourceGraphic" in2="effect1_dropShadow_423_27" result="shape"/>
</filter>
<linearGradient id="paint0_linear_423_27" x1="130" y1="84.5" x2="104.611" y2="-45.5099" gradientUnits="userSpaceOnUse">
<stop stop-color="#98AA28"/>
<stop offset="1" stop-color="#D6FF7E"/>
</linearGradient>
<linearGradient id="paint1_linear_423_27" x1="205" y1="88.5" x2="55.5" y2="-26" gradientUnits="userSpaceOnUse">
<stop stop-color="white" stop-opacity="0.69"/>
<stop offset="1" stop-color="white" stop-opacity="0.25"/>
</linearGradient>
</defs>
</svg>
