<svg width="140" height="55" viewBox="0 0 140 55" fill="none" xmlns="http://www.w3.org/2000/svg">
<rect width="140" height="55" rx="27.5" fill="white" fill-opacity="0.1"/>
<rect x="0.5" y="0.5" width="139" height="54" rx="27" stroke="#EDFF81" stroke-opacity="0.4"/>
<path d="M36.8351 33C36.7285 33 36.6378 32.9627 36.5631 32.888C36.4885 32.8133 36.4511 32.7227 36.4511 32.616V22.2C36.4511 22.0827 36.4885 21.9867 36.5631 21.912C36.6378 21.8373 36.7285 21.8 36.8351 21.8H43.7791C43.8965 21.8 43.9925 21.8373 44.0671 21.912C44.1418 21.9867 44.1791 22.0827 44.1791 22.2V23.32C44.1791 23.4373 44.1418 23.5333 44.0671 23.608C43.9925 23.672 43.8965 23.704 43.7791 23.704H38.6431V26.744H43.4591C43.5765 26.744 43.6725 26.7813 43.7471 26.856C43.8218 26.9307 43.8591 27.0267 43.8591 27.144V28.264C43.8591 28.3707 43.8218 28.4613 43.7471 28.536C43.6725 28.6107 43.5765 28.648 43.4591 28.648H38.6431V32.616C38.6431 32.7227 38.6058 32.8133 38.5311 32.888C38.4565 32.9627 38.3605 33 38.2431 33H36.8351ZM46.065 33C45.9583 33 45.8677 32.9627 45.793 32.888C45.7183 32.8133 45.681 32.7227 45.681 32.616V25.08C45.681 24.9627 45.7183 24.8667 45.793 24.792C45.8677 24.7173 45.9583 24.68 46.065 24.68H47.361C47.4677 24.68 47.5583 24.7173 47.633 24.792C47.7183 24.8667 47.761 24.9627 47.761 25.08V25.736C48.0063 25.3947 48.321 25.1333 48.705 24.952C49.0997 24.7707 49.553 24.68 50.065 24.68H50.721C50.8383 24.68 50.929 24.7173 50.993 24.792C51.0677 24.8667 51.105 24.9573 51.105 25.064V26.216C51.105 26.3227 51.0677 26.4133 50.993 26.488C50.929 26.5627 50.8383 26.6 50.721 26.6H49.473C48.961 26.6 48.561 26.744 48.273 27.032C47.9957 27.3093 47.857 27.704 47.857 28.216V32.616C47.857 32.7227 47.8197 32.8133 47.745 32.888C47.6703 32.9627 47.5743 33 47.457 33H46.065ZM55.8275 33.16C54.6435 33.16 53.7048 32.8187 53.0115 32.136C52.3182 31.4533 51.9448 30.4827 51.8915 29.224C51.8808 29.1173 51.8755 28.984 51.8755 28.824C51.8755 28.6533 51.8808 28.52 51.8915 28.424C51.9342 27.6133 52.1155 26.92 52.4355 26.344C52.7662 25.7573 53.2195 25.3093 53.7955 25C54.3715 24.68 55.0488 24.52 55.8275 24.52C56.6915 24.52 57.4168 24.7013 58.0035 25.064C58.5902 25.416 59.0328 25.912 59.3315 26.552C59.6302 27.1813 59.7795 27.912 59.7795 28.744V29.08C59.7795 29.1867 59.7422 29.2773 59.6675 29.352C59.5928 29.4267 59.4968 29.464 59.3795 29.464H54.0675C54.0675 29.464 54.0675 29.48 54.0675 29.512C54.0675 29.544 54.0675 29.5707 54.0675 29.592C54.0782 29.9653 54.1475 30.312 54.2755 30.632C54.4142 30.9413 54.6115 31.192 54.8675 31.384C55.1342 31.576 55.4488 31.672 55.8115 31.672C56.1102 31.672 56.3608 31.6293 56.5635 31.544C56.7662 31.448 56.9315 31.3413 57.0595 31.224C57.1875 31.1067 57.2782 31.0107 57.3315 30.936C57.4275 30.808 57.5022 30.7333 57.5555 30.712C57.6195 30.68 57.7102 30.664 57.8275 30.664H59.2035C59.3102 30.664 59.3955 30.696 59.4595 30.76C59.5342 30.824 59.5662 30.904 59.5555 31C59.5448 31.1707 59.4542 31.3787 59.2835 31.624C59.1235 31.8693 58.8888 32.1093 58.5795 32.344C58.2702 32.5787 57.8808 32.776 57.4115 32.936C56.9528 33.0853 56.4248 33.16 55.8275 33.16ZM54.0675 28.12H57.6035V28.072C57.6035 27.656 57.5342 27.2933 57.3955 26.984C57.2568 26.664 57.0542 26.4187 56.7875 26.248C56.5208 26.0667 56.2008 25.976 55.8275 25.976C55.4542 25.976 55.1342 26.0667 54.8675 26.248C54.6008 26.4187 54.3982 26.664 54.2595 26.984C54.1315 27.2933 54.0675 27.656 54.0675 28.072V28.12ZM65.0619 33.16C63.8779 33.16 62.9392 32.8187 62.2459 32.136C61.5525 31.4533 61.1792 30.4827 61.1259 29.224C61.1152 29.1173 61.1099 28.984 61.1099 28.824C61.1099 28.6533 61.1152 28.52 61.1259 28.424C61.1685 27.6133 61.3499 26.92 61.6699 26.344C62.0005 25.7573 62.4539 25.3093 63.0299 25C63.6059 24.68 64.2832 24.52 65.0619 24.52C65.9259 24.52 66.6512 24.7013 67.2379 25.064C67.8245 25.416 68.2672 25.912 68.5659 26.552C68.8645 27.1813 69.0139 27.912 69.0139 28.744V29.08C69.0139 29.1867 68.9765 29.2773 68.9019 29.352C68.8272 29.4267 68.7312 29.464 68.6139 29.464H63.3019C63.3019 29.464 63.3019 29.48 63.3019 29.512C63.3019 29.544 63.3019 29.5707 63.3019 29.592C63.3125 29.9653 63.3819 30.312 63.5099 30.632C63.6485 30.9413 63.8459 31.192 64.1019 31.384C64.3685 31.576 64.6832 31.672 65.0459 31.672C65.3445 31.672 65.5952 31.6293 65.7979 31.544C66.0005 31.448 66.1659 31.3413 66.2939 31.224C66.4219 31.1067 66.5125 31.0107 66.5659 30.936C66.6619 30.808 66.7365 30.7333 66.7899 30.712C66.8539 30.68 66.9445 30.664 67.0619 30.664H68.4379C68.5445 30.664 68.6299 30.696 68.6939 30.76C68.7685 30.824 68.8005 30.904 68.7899 31C68.7792 31.1707 68.6885 31.3787 68.5179 31.624C68.3579 31.8693 68.1232 32.1093 67.8139 32.344C67.5045 32.5787 67.1152 32.776 66.6459 32.936C66.1872 33.0853 65.6592 33.16 65.0619 33.16ZM63.3019 28.12H66.8379V28.072C66.8379 27.656 66.7685 27.2933 66.6299 26.984C66.4912 26.664 66.2885 26.4187 66.0219 26.248C65.7552 26.0667 65.4352 25.976 65.0619 25.976C64.6885 25.976 64.3685 26.0667 64.1019 26.248C63.8352 26.4187 63.6325 26.664 63.4939 26.984C63.3659 27.2933 63.3019 27.656 63.3019 28.072V28.12ZM77.0179 33C76.9112 33 76.8205 32.9627 76.7459 32.888C76.6712 32.8133 76.6339 32.7227 76.6339 32.616V23.768H73.6739C73.5672 23.768 73.4765 23.7307 73.4019 23.656C73.3272 23.5813 73.2899 23.4907 73.2899 23.384V22.2C73.2899 22.0827 73.3272 21.9867 73.4019 21.912C73.4765 21.8373 73.5672 21.8 73.6739 21.8H81.8339C81.9512 21.8 82.0472 21.8373 82.1219 21.912C82.1965 21.9867 82.2339 22.0827 82.2339 22.2V23.384C82.2339 23.4907 82.1965 23.5813 82.1219 23.656C82.0472 23.7307 81.9512 23.768 81.8339 23.768H78.8899V32.616C78.8899 32.7227 78.8525 32.8133 78.7779 32.888C78.7032 32.9627 78.6072 33 78.4899 33H77.0179ZM82.9713 33C82.8646 33 82.7739 32.9627 82.6993 32.888C82.6246 32.8133 82.5872 32.7227 82.5872 32.616V25.08C82.5872 24.9627 82.6246 24.8667 82.6993 24.792C82.7739 24.7173 82.8646 24.68 82.9713 24.68H84.2673C84.3739 24.68 84.4646 24.7173 84.5393 24.792C84.6246 24.8667 84.6673 24.9627 84.6673 25.08V25.736C84.9126 25.3947 85.2273 25.1333 85.6113 24.952C86.0059 24.7707 86.4593 24.68 86.9713 24.68H87.6273C87.7446 24.68 87.8353 24.7173 87.8993 24.792C87.9739 24.8667 88.0113 24.9573 88.0113 25.064V26.216C88.0113 26.3227 87.9739 26.4133 87.8993 26.488C87.8353 26.5627 87.7446 26.6 87.6273 26.6H86.3793C85.8673 26.6 85.4673 26.744 85.1793 27.032C84.9019 27.3093 84.7633 27.704 84.7633 28.216V32.616C84.7633 32.7227 84.7259 32.8133 84.6513 32.888C84.5766 32.9627 84.4806 33 84.3633 33H82.9713ZM89.6431 33C89.5365 33 89.4458 32.9627 89.3711 32.888C89.2965 32.8133 89.2591 32.7227 89.2591 32.616V25.064C89.2591 24.9573 89.2965 24.8667 89.3711 24.792C89.4458 24.7173 89.5365 24.68 89.6431 24.68H90.9711C91.0885 24.68 91.1791 24.7173 91.2431 24.792C91.3178 24.8667 91.3551 24.9573 91.3551 25.064V32.616C91.3551 32.7227 91.3178 32.8133 91.2431 32.888C91.1791 32.9627 91.0885 33 90.9711 33H89.6431ZM89.5791 23.304C89.4725 23.304 89.3818 23.2667 89.3071 23.192C89.2325 23.1173 89.1951 23.0267 89.1951 22.92V21.768C89.1951 21.6613 89.2325 21.5707 89.3071 21.496C89.3818 21.4213 89.4725 21.384 89.5791 21.384H91.0351C91.1525 21.384 91.2485 21.4213 91.3231 21.496C91.3978 21.5707 91.4351 21.6613 91.4351 21.768V22.92C91.4351 23.0267 91.3978 23.1173 91.3231 23.192C91.2485 23.2667 91.1525 23.304 91.0351 23.304H89.5791ZM95.8939 33.16C95.3392 33.16 94.8379 33.0533 94.3899 32.84C93.9419 32.616 93.5845 32.3227 93.3179 31.96C93.0619 31.5867 92.9339 31.1707 92.9339 30.712C92.9339 29.9653 93.2379 29.3733 93.8459 28.936C94.4539 28.488 95.2485 28.1893 96.2299 28.04L98.4219 27.72V27.384C98.4219 26.936 98.3099 26.5893 98.0859 26.344C97.8619 26.0987 97.4779 25.976 96.9339 25.976C96.5499 25.976 96.2352 26.056 95.9899 26.216C95.7552 26.3653 95.5792 26.568 95.4619 26.824C95.3765 26.9627 95.2539 27.032 95.0939 27.032H93.8299C93.7125 27.032 93.6219 27 93.5579 26.936C93.5045 26.872 93.4779 26.7867 93.4779 26.68C93.4885 26.5093 93.5579 26.3013 93.6859 26.056C93.8245 25.8107 94.0272 25.576 94.2939 25.352C94.5712 25.1173 94.9285 24.92 95.3659 24.76C95.8032 24.6 96.3312 24.52 96.9499 24.52C97.6219 24.52 98.1872 24.6053 98.6459 24.776C99.1152 24.936 99.4885 25.1547 99.7659 25.432C100.043 25.7093 100.246 26.0347 100.374 26.408C100.502 26.7813 100.566 27.176 100.566 27.592V32.616C100.566 32.7227 100.529 32.8133 100.454 32.888C100.379 32.9627 100.289 33 100.182 33H98.8859C98.7685 33 98.6725 32.9627 98.5979 32.888C98.5339 32.8133 98.5019 32.7227 98.5019 32.616V31.992C98.3632 32.184 98.1765 32.3707 97.9419 32.552C97.7072 32.7333 97.4192 32.8827 97.0779 33C96.7472 33.1067 96.3525 33.16 95.8939 33.16ZM96.4379 31.64C96.8112 31.64 97.1472 31.56 97.4459 31.4C97.7552 31.24 97.9952 30.9947 98.1659 30.664C98.3472 30.3227 98.4379 29.896 98.4379 29.384V29.048L96.8379 29.304C96.2085 29.4 95.7392 29.5547 95.4299 29.768C95.1205 29.9813 94.9659 30.2427 94.9659 30.552C94.9659 30.7867 95.0352 30.9893 95.1739 31.16C95.3232 31.32 95.5099 31.4427 95.7339 31.528C95.9579 31.6027 96.1925 31.64 96.4379 31.64ZM103.019 33C102.912 33 102.821 32.9627 102.747 32.888C102.672 32.8133 102.635 32.7227 102.635 32.616V22.024C102.635 21.9173 102.672 21.8267 102.747 21.752C102.821 21.6773 102.912 21.64 103.019 21.64H104.347C104.453 21.64 104.544 21.6773 104.619 21.752C104.693 21.8267 104.731 21.9173 104.731 22.024V32.616C104.731 32.7227 104.693 32.8133 104.619 32.888C104.544 32.9627 104.453 33 104.347 33H103.019Z" fill="white"/>
</svg>
