<svg width="198" height="31" viewBox="0 0 198 31" fill="none" xmlns="http://www.w3.org/2000/svg">
<path d="M42.3003 23.6131C42.1182 23.6131 41.9543 23.5508 41.8086 23.4263C41.6812 23.3018 41.6174 23.1418 41.6174 22.9461V10.4071C41.6174 10.2114 41.6812 10.0513 41.8086 9.92683C41.9543 9.80233 42.1182 9.74008 42.3003 9.74008H44.8408C45.0411 9.74008 45.205 9.80233 45.3325 9.92683C45.4599 10.0513 45.5237 10.2114 45.5237 10.4071V11.3141C45.9061 10.8161 46.416 10.3893 47.0534 10.0336C47.709 9.67783 48.483 9.49108 49.3753 9.47329C51.4696 9.43772 52.9173 10.2203 53.7186 11.821C54.1375 11.1274 54.7384 10.5671 55.5215 10.1403C56.3046 9.69562 57.1696 9.47329 58.1165 9.47329C59.0635 9.47329 59.9194 9.68672 60.6843 10.1136C61.4492 10.5227 62.0592 11.163 62.5145 12.0345C62.9698 12.8882 63.1974 13.9909 63.1974 15.3426V22.9461C63.1974 23.1418 63.1246 23.3018 62.9789 23.4263C62.8514 23.5508 62.6966 23.6131 62.5145 23.6131H59.8102C59.6098 23.6131 59.4459 23.5508 59.3185 23.4263C59.191 23.3018 59.1273 23.1418 59.1273 22.9461V15.5561C59.1273 14.8269 59.018 14.2577 58.7995 13.8486C58.5991 13.4396 58.3169 13.1461 57.9526 12.9682C57.6066 12.7726 57.2151 12.6748 56.778 12.6748C56.3956 12.6748 56.0223 12.7726 55.6581 12.9682C55.3121 13.1461 55.0207 13.4396 54.7839 13.8486C54.5654 14.2577 54.4561 14.8269 54.4561 15.5561V22.9461C54.4561 23.1418 54.3924 23.3018 54.2649 23.4263C54.1375 23.5508 53.9827 23.6131 53.8006 23.6131H51.0962C50.8959 23.6131 50.732 23.5508 50.6045 23.4263C50.4771 23.3018 50.4133 23.1418 50.4133 22.9461V15.5561C50.4133 14.8269 50.3041 14.2577 50.0855 13.8486C49.867 13.4396 49.5756 13.1461 49.2114 12.9682C48.8654 12.7726 48.483 12.6748 48.0641 12.6748C47.6817 12.6748 47.3084 12.7726 46.9441 12.9682C46.5981 13.1461 46.3068 13.4396 46.07 13.8486C45.8515 14.2577 45.7422 14.818 45.7422 15.5294V22.9461C45.7422 23.1418 45.6785 23.3018 45.551 23.4263C45.4235 23.5508 45.2596 23.6131 45.0593 23.6131H42.3003Z" fill="#253D32"/>
<path d="M71.206 23.8799C70.2408 23.8799 69.3758 23.702 68.611 23.3463C67.8461 22.9728 67.236 22.4748 66.7808 21.8523C66.3255 21.2298 66.0979 20.5361 66.0979 19.7713C66.0979 18.5085 66.6169 17.5125 67.6549 16.7833C68.7111 16.0541 70.0952 15.5561 71.807 15.2893L75.3854 14.7824V14.3022C75.3854 13.6085 75.2215 13.0749 74.8937 12.7014C74.5659 12.3279 73.9923 12.1412 73.1728 12.1412C72.5718 12.1412 72.0893 12.2568 71.725 12.488C71.379 12.7192 71.1059 13.0216 70.9055 13.3951C70.7599 13.6263 70.5413 13.7419 70.2499 13.7419H67.6549C67.4546 13.7419 67.2998 13.6886 67.1905 13.5818C67.0812 13.4573 67.0357 13.3151 67.0539 13.155C67.0539 12.8526 67.1723 12.4969 67.409 12.0878C67.6458 11.6787 68.01 11.2786 68.5017 10.8873C68.9934 10.4782 69.6217 10.1403 70.3865 9.87348C71.1696 9.60669 72.1075 9.47329 73.2001 9.47329C74.3474 9.47329 75.3308 9.60669 76.1503 9.87348C76.9698 10.1403 77.6254 10.5138 78.1171 10.994C78.627 11.4742 78.9912 12.0345 79.2097 12.6748C79.4465 13.2973 79.5648 13.9731 79.5648 14.7024V22.9461C79.5648 23.1418 79.5011 23.3018 79.3736 23.4263C79.2462 23.5508 79.0914 23.6131 78.9093 23.6131H76.2049C76.0228 23.6131 75.868 23.5508 75.7405 23.4263C75.6131 23.3018 75.5493 23.1418 75.5493 22.9461V21.959C75.3126 22.2969 74.9939 22.6171 74.5933 22.9194C74.1926 23.204 73.71 23.4352 73.1455 23.6131C72.5992 23.791 71.9527 23.8799 71.206 23.8799ZM72.2987 21.1053C72.8996 21.1053 73.4369 20.9808 73.9104 20.7318C74.3838 20.4828 74.7572 20.1004 75.0303 19.5846C75.3035 19.0688 75.4401 18.4196 75.4401 17.637V17.1835L72.8996 17.5837C71.9345 17.7437 71.2242 17.9839 70.769 18.304C70.3137 18.6241 70.0861 19.0154 70.0861 19.4779C70.0861 19.8158 70.1862 20.1093 70.3865 20.3583C70.6051 20.5895 70.8782 20.7762 71.206 20.9185C71.552 21.043 71.9163 21.1053 72.2987 21.1053Z" fill="#253D32"/>
<path d="M84.0742 23.6131C83.8921 23.6131 83.7282 23.5508 83.5825 23.4263C83.455 23.3018 83.3913 23.1418 83.3913 22.9461V10.4071C83.3913 10.2292 83.455 10.078 83.5825 9.95351C83.7282 9.81123 83.8921 9.74008 84.0742 9.74008H86.7512C86.9515 9.74008 87.1154 9.81123 87.2429 9.95351C87.3704 10.078 87.4341 10.2292 87.4341 10.4071V11.4742C87.8894 10.9228 88.4539 10.496 89.1277 10.1936C89.8015 9.89126 90.5664 9.74008 91.4223 9.74008H92.5969C92.7972 9.74008 92.9611 9.80233 93.0886 9.92683C93.2161 10.0513 93.2798 10.2114 93.2798 10.4071V12.7281C93.2798 12.906 93.2161 13.0572 93.0886 13.1817C92.9611 13.3062 92.7972 13.3684 92.5969 13.3684H90.2204C89.4009 13.3684 88.7635 13.5907 88.3082 14.0354C87.8712 14.48 87.6526 15.0936 87.6526 15.8762V22.9461C87.6526 23.1418 87.5798 23.3018 87.4341 23.4263C87.3066 23.5508 87.1518 23.6131 86.9697 23.6131H84.0742Z" fill="#253D32"/>
<path d="M96.5454 23.6131C96.3451 23.6131 96.1812 23.5508 96.0537 23.4263C95.9262 23.3018 95.8625 23.1418 95.8625 22.9461V5.33807C95.8625 5.14242 95.9262 4.98235 96.0537 4.85785C96.1812 4.73335 96.3451 4.6711 96.5454 4.6711H99.2224C99.4045 4.6711 99.5593 4.73335 99.6868 4.85785C99.8325 4.98235 99.9053 5.14242 99.9053 5.33807V14.3555L104.085 10.1936C104.23 10.0691 104.358 9.96241 104.467 9.87348C104.595 9.78455 104.786 9.74008 105.041 9.74008H108.155C108.319 9.74008 108.455 9.80233 108.565 9.92683C108.692 10.0335 108.756 10.1669 108.756 10.327C108.756 10.3982 108.738 10.4782 108.701 10.5671C108.665 10.6561 108.601 10.7272 108.51 10.7806L103.238 15.9563L109.193 22.5993C109.339 22.7416 109.411 22.8839 109.411 23.0262C109.411 23.1862 109.357 23.3285 109.248 23.453C109.138 23.5597 108.993 23.6131 108.81 23.6131H105.642C105.369 23.6131 105.168 23.5686 105.041 23.4797C104.932 23.3908 104.804 23.2841 104.658 23.1596L99.9053 17.9305V22.9461C99.9053 23.1418 99.8325 23.3018 99.6868 23.4263C99.5593 23.5508 99.4045 23.6131 99.2224 23.6131H96.5454Z" fill="#253D32"/>
<path d="M117.605 23.8799C115.511 23.8799 113.844 23.3107 112.606 22.1724C111.386 21.0341 110.739 19.3801 110.667 17.2102C110.667 17.0679 110.667 16.8811 110.667 16.6499C110.667 16.4009 110.667 16.2142 110.667 16.0897C110.739 14.7024 111.058 13.5196 111.623 12.5414C112.187 11.5454 112.979 10.7895 113.999 10.2737C115.019 9.74008 116.212 9.47329 117.578 9.47329C119.125 9.47329 120.409 9.78455 121.429 10.4071C122.449 11.0118 123.214 11.8477 123.724 12.9149C124.252 13.9642 124.516 15.1737 124.516 16.5432V17.1568C124.516 17.3347 124.452 17.4947 124.325 17.637C124.197 17.7615 124.033 17.8238 123.833 17.8238H114.928C114.928 17.8238 114.928 17.8505 114.928 17.9038C114.928 17.9394 114.928 17.975 114.928 18.0105C114.946 18.5797 115.055 19.1044 115.256 19.5846C115.456 20.047 115.747 20.4205 116.13 20.7051C116.53 20.9897 117.013 21.132 117.578 21.132C118.015 21.132 118.379 21.0697 118.67 20.9452C118.962 20.8029 119.198 20.6517 119.38 20.4917C119.581 20.3138 119.726 20.1626 119.818 20.0381C119.981 19.8425 120.109 19.7269 120.2 19.6913C120.309 19.6379 120.464 19.6113 120.664 19.6113H123.56C123.724 19.6113 123.86 19.6646 123.97 19.7713C124.097 19.8781 124.152 20.0115 124.134 20.1715C124.115 20.4739 123.961 20.8385 123.669 21.2654C123.396 21.6744 122.986 22.0835 122.44 22.4926C121.894 22.8839 121.211 23.2129 120.391 23.4797C119.59 23.7465 118.661 23.8799 117.605 23.8799ZM114.928 15.3693H120.255V15.2893C120.255 14.6668 120.145 14.1243 119.927 13.6619C119.726 13.1817 119.426 12.8082 119.025 12.5414C118.625 12.2746 118.142 12.1412 117.578 12.1412C117.013 12.1412 116.53 12.2746 116.13 12.5414C115.747 12.8082 115.447 13.1817 115.228 13.6619C115.028 14.1243 114.928 14.6668 114.928 15.2893V15.3693Z" fill="#253D32"/>
<path d="M134.595 23.6131C133.466 23.6131 132.501 23.4352 131.7 23.0795C130.917 22.706 130.316 22.1369 129.897 21.3721C129.478 20.6073 129.269 19.6468 129.269 18.4908V12.8882H127.138C126.938 12.8882 126.774 12.8259 126.646 12.7014C126.519 12.5769 126.455 12.4258 126.455 12.2479V10.4071C126.455 10.2114 126.519 10.0513 126.646 9.92683C126.774 9.80233 126.938 9.74008 127.138 9.74008H129.269V5.33807C129.269 5.14242 129.332 4.98235 129.46 4.85785C129.605 4.73335 129.769 4.6711 129.951 4.6711H132.656C132.838 4.6711 132.993 4.73335 133.12 4.85785C133.248 4.98235 133.311 5.14242 133.311 5.33807V9.74008H136.726C136.926 9.74008 137.09 9.80233 137.218 9.92683C137.345 10.0513 137.409 10.2114 137.409 10.4071V12.2479C137.409 12.4258 137.345 12.5769 137.218 12.7014C137.09 12.8259 136.926 12.8882 136.726 12.8882H133.311V18.1706C133.311 18.8465 133.439 19.3801 133.694 19.7713C133.949 20.1448 134.377 20.3316 134.978 20.3316H136.972C137.172 20.3316 137.336 20.3938 137.463 20.5183C137.591 20.6429 137.655 20.794 137.655 20.9719V22.9461C137.655 23.1418 137.591 23.3018 137.463 23.4263C137.336 23.5508 137.172 23.6131 136.972 23.6131H134.595Z" fill="#253D32"/>
<path d="M141.24 23.6131C141.039 23.6131 140.876 23.5508 140.748 23.4263C140.621 23.3018 140.557 23.1418 140.557 22.9461V5.33807C140.557 5.14242 140.621 4.98235 140.748 4.85785C140.876 4.73335 141.039 4.6711 141.24 4.6711H144.19C144.39 4.6711 144.554 4.73335 144.682 4.85785C144.809 4.98235 144.873 5.14242 144.873 5.33807V11.3408C145.346 10.7717 145.938 10.3181 146.648 9.98019C147.377 9.64226 148.242 9.47329 149.243 9.47329C150.318 9.47329 151.265 9.7134 152.084 10.1936C152.922 10.6561 153.569 11.3408 154.024 12.2479C154.497 13.1372 154.734 14.2221 154.734 15.5027V22.9461C154.734 23.1418 154.67 23.3018 154.543 23.4263C154.415 23.5508 154.252 23.6131 154.051 23.6131H151.074C150.892 23.6131 150.737 23.5508 150.609 23.4263C150.482 23.3018 150.418 23.1418 150.418 22.9461V15.6628C150.418 14.7201 150.181 13.9909 149.708 13.4751C149.234 12.9415 148.561 12.6748 147.686 12.6748C146.831 12.6748 146.148 12.9415 145.638 13.4751C145.128 13.9909 144.873 14.7201 144.873 15.6628V22.9461C144.873 23.1418 144.809 23.3018 144.682 23.4263C144.554 23.5508 144.39 23.6131 144.19 23.6131H141.24Z" fill="#253D32"/>
<path d="M159.205 23.6131C159.023 23.6131 158.859 23.5508 158.713 23.4263C158.586 23.3018 158.522 23.1418 158.522 22.9461V10.4071C158.522 10.2114 158.586 10.0513 158.713 9.92683C158.859 9.80233 159.023 9.74008 159.205 9.74008H161.964C162.146 9.74008 162.301 9.80233 162.428 9.92683C162.556 10.0513 162.62 10.2114 162.62 10.4071V22.9461C162.62 23.1418 162.556 23.3018 162.428 23.4263C162.301 23.5508 162.146 23.6131 161.964 23.6131H159.205ZM159.123 7.60577C158.941 7.60577 158.786 7.54352 158.659 7.41902C158.531 7.29452 158.467 7.13445 158.467 6.9388V4.77781C158.467 4.59995 158.531 4.44877 158.659 4.32427C158.786 4.18198 158.941 4.11084 159.123 4.11084H162.019C162.201 4.11084 162.356 4.18198 162.483 4.32427C162.629 4.44877 162.702 4.59995 162.702 4.77781V6.9388C162.702 7.13445 162.629 7.29452 162.483 7.41902C162.356 7.54352 162.201 7.60577 162.019 7.60577H159.123Z" fill="#253D32"/>
<path d="M167.274 23.6131C167.092 23.6131 166.928 23.5508 166.782 23.4263C166.655 23.3018 166.591 23.1418 166.591 22.9461V10.4071C166.591 10.2114 166.655 10.0513 166.782 9.92683C166.928 9.80233 167.092 9.74008 167.274 9.74008H169.951C170.151 9.74008 170.315 9.80233 170.443 9.92683C170.57 10.0513 170.634 10.2114 170.634 10.4071V11.4475C171.107 10.8784 171.718 10.4071 172.464 10.0336C173.229 9.66005 174.14 9.47329 175.196 9.47329C176.27 9.47329 177.217 9.7134 178.037 10.1936C178.856 10.6561 179.494 11.3408 179.949 12.2479C180.404 13.1372 180.632 14.2221 180.632 15.5027V22.9461C180.632 23.1418 180.568 23.3018 180.441 23.4263C180.313 23.5508 180.149 23.6131 179.949 23.6131H177.053C176.853 23.6131 176.689 23.5508 176.562 23.4263C176.434 23.3018 176.37 23.1418 176.37 22.9461V15.6628C176.37 14.7201 176.134 13.9909 175.66 13.4751C175.205 12.9415 174.531 12.6748 173.639 12.6748C172.783 12.6748 172.1 12.9415 171.59 13.4751C171.098 13.9909 170.852 14.7201 170.852 15.6628V22.9461C170.852 23.1418 170.789 23.3018 170.661 23.4263C170.534 23.5508 170.37 23.6131 170.17 23.6131H167.274Z" fill="#253D32"/>
<path d="M185.134 23.6131C184.934 23.6131 184.77 23.5508 184.642 23.4263C184.515 23.3018 184.451 23.1418 184.451 22.9461V5.33807C184.451 5.14242 184.515 4.98235 184.642 4.85785C184.77 4.73335 184.934 4.6711 185.134 4.6711H187.811C187.993 4.6711 188.148 4.73335 188.275 4.85785C188.421 4.98235 188.494 5.14242 188.494 5.33807V14.3555L192.673 10.1936C192.819 10.0691 192.946 9.96241 193.056 9.87348C193.183 9.78455 193.374 9.74008 193.629 9.74008H196.743C196.907 9.74008 197.044 9.80233 197.153 9.92683C197.281 10.0335 197.344 10.1669 197.344 10.327C197.344 10.3982 197.326 10.4782 197.29 10.5671C197.253 10.6561 197.189 10.7272 197.098 10.7806L191.826 15.9563L197.781 22.5993C197.927 22.7416 198 22.8839 198 23.0262C198 23.1862 197.945 23.3285 197.836 23.453C197.727 23.5597 197.581 23.6131 197.399 23.6131H194.23C193.957 23.6131 193.757 23.5686 193.629 23.4797C193.52 23.3908 193.392 23.2841 193.247 23.1596L188.494 17.9305V22.9461C188.494 23.1418 188.421 23.3018 188.275 23.4263C188.148 23.5508 187.993 23.6131 187.811 23.6131H185.134Z" fill="#253D32"/>
<path d="M22.3257 28.2307C25.9523 28.2307 28.8922 25.3594 28.8922 21.8175C28.8922 18.2756 25.9523 15.4043 22.3257 15.4043C18.6992 15.4043 15.7593 18.2756 15.7593 21.8175C15.7593 25.3594 18.6992 28.2307 22.3257 28.2307Z" fill="#EDFF81"/>
<path d="M24.2957 11.5563C26.8343 11.5563 28.8922 9.54645 28.8922 7.06711C28.8922 4.58778 26.8343 2.57788 24.2957 2.57788C21.7571 2.57788 19.6992 4.58778 19.6992 7.06711C19.6992 9.54645 21.7571 11.5563 24.2957 11.5563Z" fill="#253D32"/>
<path d="M7.26228 28.1921C9.80087 28.1921 11.8588 26.1822 11.8588 23.7029C11.8588 21.2235 9.80087 19.2136 7.26228 19.2136C4.7237 19.2136 2.66577 21.2235 2.66577 23.7029C2.66577 26.1822 4.7237 28.1921 7.26228 28.1921Z" fill="#253D32"/>
<path d="M9.19291 15.4043C12.8195 15.4043 15.7594 12.533 15.7594 8.99107C15.7594 5.44916 12.8195 2.57788 9.19291 2.57788C5.56636 2.57788 2.62646 5.44916 2.62646 8.99107C2.62646 12.533 5.56636 15.4043 9.19291 15.4043Z" fill="#EDFF81"/>
</svg>
